#!OML:ASF G:\JayActor3\Patient Classification 1\Patient 1\Session 6\male.ASF
:FULLY-SPECIFIED
:DEGREES
1108
root -2.88602 15.2551 -2.59189 364.062 -37.4623 -367.09
lowerback 23.8177 -0.997541 -2.88592
upperback 8.58037 -2.31198 -1.90034
thorax -3.79488 -1.26402 0.212208
lowerneck 14.9886 1.60306 1.72959
upperneck -7.05446 2.47763 0.0446139
head -4.5182 1.15927 -0.46352
rclavicle -1.74931e-014 2.22639e-014
rhumerus -32.8945 13.196 -90.0462
rradius 118.823
rwrist 12.2152
rhand 12.6269 -15.3733
rfingers 7.12502
rthumb 37.6134 -41.2766
lclavicle -1.74931e-014 2.22639e-014
lhumerus -36.5418 2.24271 79.5877
lradius 128.162
lwrist 5.3203
lhand 4.91632 35.8279
lfingers 7.12502
lthumb 30.2902 63.3622
rfemur -50.7323 -11.0379 24.7589
rtibia 115.055
rfoot -11.2955 -6.46907
rtoes -10.2617
lfemur -36.6079 17.9899 -17.6075
ltibia 55.9277
lfoot -19.5028 4.96266
ltoes 2.41577
1109
root -2.91097 15.2341 -2.50201 363.999 -37.7667 -367.072
lowerback 24.0206 -0.971541 -3.00706
upperback 8.77082 -2.32266 -1.96375
thorax -3.68419 -1.27782 0.217028
lowerneck 15.1271 1.647 1.6657
upperneck -6.82585 2.52606 0.0844759
head -4.47013 1.18314 -0.444427
rclavicle -1.74931e-014 1.43125e-014
rhumerus -32.8317 13.2655 -89.9307
rradius 118.979
rwrist 12.1293
rhand 12.6322 -15.407
rfingers 7.12502
rthumb 37.6184 -41.309
lclavicle -1.74931e-014 1.43125e-014
lhumerus -36.4365 2.23231 79.6666
lradius 128.176
lwrist 5.344
lhand 5.23462 35.8476
lfingers 7.12502
lthumb 30.5937 63.3257
rfemur -52.9111 -11.0988 25.1155
rtibia 116.498
rfoot -11.65 -6.51757
rtoes -10.7383
lfemur -36.4216 18.0219 -17.653
ltibia 56.4832
lfoot -19.9466 5.48319
ltoes 1.71537
1110
root -2.93646 15.2128 -2.41201 363.916 -38.0467 -367.035
lowerback 24.2139 -0.947351 -3.11156
upperback 8.96443 -2.33233 -2.03509
thorax -3.56576 -1.29117 0.203159
lowerneck 15.2724 1.68032 1.63878
upperneck -6.59059 2.5676 0.12866
head -4.42074 1.20219 -0.429372
rclavicle 1.59028e-015 3.81667e-014
rhumerus -32.7911 13.2809 -89.8222
rradius 119.136
rwrist 12.0728
rhand 12.6571 -15.424
rfingers 7.12502
rthumb 37.642 -41.3198
lclavicle 1.59028e-015 3.81667e-014
lhumerus -36.3079 2.19162 79.7376
lradius 128.188
lwrist 5.35592
lhand 5.60702 35.8547
lfingers 7.12502
lthumb 30.9488 63.2659
rfemur -55.0439 -11.1498 25.4877
rtibia 117.787
rfoot -12.0379 -6.63834
rtoes -11.311
lfemur -36.2176 18.0105 -17.7107
ltibia 57.0255
lfoot -20.401 5.99993
ltoes 1.17289
1111
root -2.96269 15.1916 -2.32152 363.807 -38.3062 -366.976
lowerback 24.3972 -0.922536 -3.20096
upperback 9.16349 -2.33815 -2.11511
thorax -3.43702 -1.30272 0.169849
lowerneck 15.4263 1.70412 1.65261
upperneck -6.35492 2.60431 0.173522
head -4.37211 1.21763 -0.420309
rclavicle 8.90555e-014 -3.97569e-014
rhumerus -32.7739 13.2426 -89.7249
rradius 119.289
rwrist 12.0435
rhand 12.6901 -15.424
rfingers 7.12502
rthumb 37.6731 -41.3115
lclavicle 8.90555e-014 -3.97569e-014
lhumerus -36.1753 2.10099 79.7978
lradius 128.2
lwrist 5.3756
lhand 5.95484 35.8513
lfingers 7.12502
lthumb 31.2803 63.199
rfemur -57.1122 -11.1802 25.8665
rtibia 118.912
rfoot -12.482 -6.81166
rtoes -11.846
lfemur -35.987 17.9936 -17.782
ltibia 57.5524
lfoot -20.8706 6.47019
ltoes 0.80781
1112
root -2.98975 15.1709 -2.23024 363.68 -38.5475 -366.907
lowerback 24.568 -0.898995 -3.25612
upperback 9.36674 -2.33824 -2.20732
thorax -3.29914 -1.311 0.101918
lowerneck 15.5747 1.71786 1.70302
upperneck -6.10736 2.6353 0.228566
head -4.31861 1.22873 -0.413323
rclavicle 9.54166e-015 9.54166e-015
rhumerus -32.7808 13.1472 -89.6458
rradius 119.435
rwrist 12.0392
rhand 12.7292 -15.4105
rfingers 7.12502
rthumb 37.71 -41.288
lclavicle 9.54166e-015 9.54166e-015
lhumerus -36.0353 1.9698 79.8482
lradius 128.213
lwrist 5.41997
lhand 6.2499 35.8519
lfingers 7.12502
lthumb 31.5614 63.1448
rfemur -59.1064 -11.1796 26.2564
rtibia 119.861
rfoot -12.9885 -7.03501
rtoes -12.3329
lfemur -35.7265 17.9565 -17.8516
ltibia 58.064
lfoot -21.3733 6.86972
ltoes 0.725422
1113
root -3.01789 15.1506 -2.13824 363.546 -38.7716 -366.839
lowerback 24.7245 -0.880493 -3.28824
upperback 9.57202 -2.33894 -2.29998
thorax -3.15254 -1.3193 0.0200187
lowerneck 15.719 1.73041 1.77672
upperneck -5.84815 2.66854 0.281936
head -4.26046 1.2406 -0.410611
rclavicle -1.43125e-014 -3.02153e-014
rhumerus -32.805 13.0304 -89.5785
rradius 119.571
rwrist 12.0589
rhand 12.763 -15.3914
rfingers 7.12502
rthumb 37.742 -41.2604
lclavicle -1.43125e-014 -3.02153e-014
lhumerus -35.9069 1.80961 79.8947
lradius 128.225
lwrist 5.49005
lhand 6.43822 35.8621
lfingers 7.12502
lthumb 31.7408 63.1197
rfemur -61.028 -11.135 26.6616
rtibia 120.632
rfoot -13.5531 -7.27314
rtoes -12.628
lfemur -35.4407 17.9344 -17.9153
ltibia 58.554
lfoot -21.8904 7.20379
ltoes 0.764291
1114
root -3.04724 15.131 -2.04564 363.405 -38.9839 -366.773
lowerback 24.8686 -0.864587 -3.30274
upperback 9.77859 -2.33818 -2.38879
thorax -2.99866 -1.32667 -0.0686017
lowerneck 15.8427 1.74057 1.84019
upperneck -5.56869 2.69775 0.359109
head -4.19327 1.24958 -0.398209
rclavicle 6.36111e-014 -3.33958e-014
rhumerus -32.8375 12.9059 -89.5159
rradius 119.698
rwrist 12.1033
rhand 12.8011 -15.3732
rfingers 7.12502
rthumb 37.7779 -41.2325
lclavicle 6.36111e-014 -3.33958e-014
lhumerus -35.7775 1.64777 79.9498
lradius 128.23
lwrist 5.58743
lhand 6.52646 35.8901
lfingers 7.12502
lthumb 31.8248 63.1311
rfemur -62.8715 -11.0432 27.079
rtibia 121.221
rfoot -14.1378 -7.51805
rtoes -12.754
lfemur -35.1254 17.9309 -17.97
ltibia 59.0183
lfoot -22.4214 7.46372
ltoes 0.948324
1115
root -3.07791 15.1125 -1.95263 363.263 -39.185 -366.716
lowerback 25.003 -0.854955 -3.30832
upperback 9.98352 -2.34225 -2.46634
thorax -2.84123 -1.33636 -0.1492
lowerneck 15.9457 1.75255 1.88314
upperneck -5.26659 2.72498 0.447811
head -4.11625 1.25774 -0.378442
rclavicle -5.88403e-014 2.38542e-014
rhumerus -32.8682 12.8007 -89.4537
rradius 119.817
rwrist 12.1651
rhand 12.8245 -15.3592
rfingers 7.12502
rthumb 37.8001 -41.2126
lclavicle -5.88403e-014 2.38542e-014
lhumerus -35.669 1.5012 80.0035
lradius 128.231
lwrist 5.70032
lhand 6.53505 35.9299
lfingers 7.12502
lthumb 31.833 63.1692
rfemur -64.6264 -10.8945 27.5132
rtibia 121.618
rfoot -14.7147 -7.77856
rtoes -12.817
lfemur -34.7779 17.9317 -18.0169
ltibia 59.4465
lfoot -22.9354 7.74215
ltoes 0.996786
1116
root -3.10965 15.095 -1.85954 363.124 -39.368 -366.674
lowerback 25.1615 -0.865484 -3.26071
upperback 10.1654 -2.36228 -2.56077
thorax -2.72317 -1.35102 -0.273042
lowerneck 16.0421 1.76296 1.92976
upperneck -4.93583 2.75162 0.561254
head -4.02968 1.26436 -0.351293
rclavicle -8.11041e-014 -6.36111e-015
rhumerus -32.9273 12.6956 -89.4417
rradius 119.935
rwrist 12.2483
rhand 12.847 -15.3479
rfingers 7.12502
rthumb 37.8213 -41.1955
lclavicle -8.11041e-014 -6.36111e-015
lhumerus -35.602 1.35112 80.0111
lradius 128.225
lwrist 5.82733
lhand 6.48187 35.981
lfingers 7.12502
lthumb 31.7824 63.2304
rfemur -66.2823 -10.7037 27.966
rtibia 121.816
rfoot -15.2448 -8.05616
rtoes -12.9371
lfemur -34.4064 17.9321 -18.0533
ltibia 59.84
lfoot -23.4256 8.04144
ltoes 0.90651
1117
root -3.14267 15.0791 -1.76646 362.986 -39.5366 -366.641
lowerback 25.3312 -0.88915 -3.19037
upperback 10.3348 -2.39426 -2.65302
thorax -2.6248 -1.37023 -0.40384
lowerneck 16.1247 1.77642 1.9475
upperneck -4.59036 2.77694 0.69632
head -3.9372 1.27 -0.312554
rclavicle -6.75868e-014 0
rhumerus -32.9913 12.6128 -89.4478
rradius 120.051
rwrist 12.3406
rhand 12.8594 -15.3405
rfingers 7.12502
rthumb 37.833 -41.1849
lclavicle -6.75868e-014 0
lhumerus -35.5449 1.24171 80.01
lradius 128.201
lwrist 5.94171
lhand 6.41601 36.0437
lfingers 7.12502
lthumb 31.7196 63.3054
rfemur -67.8237 -10.4667 28.4211
rtibia 121.811
rfoot -15.711 -8.30998
rtoes -13.0783
lfemur -34.0068 17.9527 -18.0815
ltibia 60.1939
lfoot -23.8863 8.35163
ltoes 0.658345
1118
root -3.17652 15.0645 -1.67339 362.861 -39.6829 -366.623
lowerback 25.5019 -0.927318 -3.0765
upperback 10.4909 -2.4347 -2.74873
thorax -2.5432 -1.39151 -0.56062
lowerneck 16.2011 1.78405 1.97243
upperneck -4.24301 2.79477 0.830864
head -3.84321 1.2721 -0.274511
rclavicle 5.56597e-014 -1.59028e-014
rhumerus -33.0648 12.5246 -89.4798
rradius 120.169
rwrist 12.4415
rhand 12.8674 -15.335
rfingers 7.12502
rthumb 37.8407 -41.1774
lclavicle 5.56597e-014 -1.59028e-014
lhumerus -35.5094 1.12615 79.9829
lradius 128.164
lwrist 6.03881
lhand 6.32271 36.1156
lfingers 7.12502
lthumb 31.6308 63.3949
rfemur -69.2466 -10.2 28.8792
rtibia 121.599
rfoot -16.1052 -8.53309
rtoes -13.3429
lfemur -33.5937 17.9517 -18.0964
ltibia 60.5144
lfoot -24.3315 8.6613
ltoes 0.397451
